<?xml version="1.0" standalone="no"?>
<!DOCTYPE svg PUBLIC "-//W3C//DTD SVG 20010904//EN"
 "http://www.w3.org/TR/2001/REC-SVG-20010904/DTD/svg10.dtd">
<svg version="1.0" xmlns="http://www.w3.org/2000/svg"
 width="50.000000pt" height="50.000000pt" viewBox="0 0 50.000000 50.000000"
 preserveAspectRatio="xMidYMid meet">

<g transform="translate(0.000000,50.000000) scale(0.100000,-0.100000)"
fill="#fff" stroke="none">
<path d="M163 450 c-24 -10 -54 -30 -68 -44 l-25 -25 0 29 c0 17 -4 30 -10 30
-5 0 -10 -22 -10 -50 l0 -50 50 0 c28 0 50 5 50 10 0 6 -14 10 -31 10 -40 0
-34 17 20 55 37 26 51 30 110 30 56 0 74 -4 108 -27 49 -32 80 -79 89 -136 9
-55 28 -56 21 -1 -19 140 -176 227 -304 169z"/>
<path d="M188 340 c-27 -27 -30 -36 -25 -72 5 -38 70 -148 87 -148 4 0 25 25
46 56 51 73 54 133 11 170 -39 34 -81 31 -119 -6z m107 -15 c14 -13 25 -33 25
-45 0 -22 -28 -81 -55 -114 -15 -20 -15 -20 -30 0 -27 33 -55 92 -55 114 0 27
43 70 70 70 12 0 32 -11 45 -25z"/>
<path d="M220 305 c-15 -18 -10 -45 13 -59 34 -22 73 27 47 59 -16 19 -44 19
-60 0z m46 -16 c10 -17 -13 -36 -27 -22 -12 12 -4 33 11 33 5 0 12 -5 16 -11z"/>
<path d="M33 220 c23 -172 239 -249 367 -130 l30 28 0 -29 c0 -16 5 -29 10
-29 6 0 10 23 10 50 l0 50 -50 0 c-27 0 -50 -4 -50 -10 0 -5 14 -10 31 -10 40
0 34 -17 -20 -55 -37 -26 -51 -30 -109 -30 -53 0 -75 5 -105 24 -48 30 -84 83
-93 139 -8 54 -29 56 -21 2z"/>
</g>
</svg>
